<mxfile host="app.diagrams.net" modified="2022-09-14T00:53:12.106Z" agent="5.0 (Windows NT 10.0; Win64; x64) AppleWebKit/537.36 (KHTML, like Gecko) Chrome/105.0.0.0 Safari/537.36" etag="fHrvvtSFOqb09XOAzxLT" version="20.2.8" type="github">
  <diagram id="CsDq84LYK3NPVZI5AL57" name="Página-1">
    <mxGraphModel dx="1718" dy="614" grid="1" gridSize="10" guides="1" tooltips="1" connect="1" arrows="1" fold="1" page="1" pageScale="1" pageWidth="827" pageHeight="1169" math="0" shadow="0">
      <root>
        <mxCell id="0" />
        <mxCell id="1" parent="0" />
        <mxCell id="h2VD8IaXCJRkYgahIwb_-3" style="edgeStyle=orthogonalEdgeStyle;rounded=0;orthogonalLoop=1;jettySize=auto;html=1;exitX=0.5;exitY=1;exitDx=0;exitDy=0;entryX=0.5;entryY=0;entryDx=0;entryDy=0;" edge="1" parent="1" source="h2VD8IaXCJRkYgahIwb_-1" target="h2VD8IaXCJRkYgahIwb_-2">
          <mxGeometry relative="1" as="geometry" />
        </mxCell>
        <mxCell id="h2VD8IaXCJRkYgahIwb_-1" value="Comemoração" style="ellipse;whiteSpace=wrap;html=1;" vertex="1" parent="1">
          <mxGeometry x="340" y="10" width="120" height="80" as="geometry" />
        </mxCell>
        <mxCell id="h2VD8IaXCJRkYgahIwb_-5" style="edgeStyle=orthogonalEdgeStyle;rounded=0;orthogonalLoop=1;jettySize=auto;html=1;exitX=0.5;exitY=1;exitDx=0;exitDy=0;entryX=0.5;entryY=0;entryDx=0;entryDy=0;" edge="1" parent="1" source="h2VD8IaXCJRkYgahIwb_-2" target="h2VD8IaXCJRkYgahIwb_-4">
          <mxGeometry relative="1" as="geometry" />
        </mxCell>
        <mxCell id="h2VD8IaXCJRkYgahIwb_-2" value="Chegar ao restaurante" style="rounded=0;whiteSpace=wrap;html=1;" vertex="1" parent="1">
          <mxGeometry x="340" y="130" width="120" height="60" as="geometry" />
        </mxCell>
        <mxCell id="h2VD8IaXCJRkYgahIwb_-10" style="edgeStyle=orthogonalEdgeStyle;rounded=0;orthogonalLoop=1;jettySize=auto;html=1;exitX=0;exitY=0.5;exitDx=0;exitDy=0;entryX=1;entryY=0.5;entryDx=0;entryDy=0;" edge="1" parent="1" source="h2VD8IaXCJRkYgahIwb_-4" target="h2VD8IaXCJRkYgahIwb_-7">
          <mxGeometry relative="1" as="geometry" />
        </mxCell>
        <mxCell id="h2VD8IaXCJRkYgahIwb_-11" value="Não" style="edgeLabel;html=1;align=center;verticalAlign=middle;resizable=0;points=[];" vertex="1" connectable="0" parent="h2VD8IaXCJRkYgahIwb_-10">
          <mxGeometry x="0.2571" y="-1" relative="1" as="geometry">
            <mxPoint as="offset" />
          </mxGeometry>
        </mxCell>
        <mxCell id="h2VD8IaXCJRkYgahIwb_-12" value="Sim" style="edgeStyle=orthogonalEdgeStyle;rounded=0;orthogonalLoop=1;jettySize=auto;html=1;exitX=0.5;exitY=1;exitDx=0;exitDy=0;entryX=0.5;entryY=0;entryDx=0;entryDy=0;" edge="1" parent="1" source="h2VD8IaXCJRkYgahIwb_-4" target="h2VD8IaXCJRkYgahIwb_-9">
          <mxGeometry relative="1" as="geometry" />
        </mxCell>
        <mxCell id="h2VD8IaXCJRkYgahIwb_-4" value="Possui&lt;br&gt;Reserva" style="rhombus;whiteSpace=wrap;html=1;" vertex="1" parent="1">
          <mxGeometry x="360" y="220" width="80" height="80" as="geometry" />
        </mxCell>
        <mxCell id="h2VD8IaXCJRkYgahIwb_-13" style="edgeStyle=orthogonalEdgeStyle;rounded=0;orthogonalLoop=1;jettySize=auto;html=1;exitX=0.5;exitY=1;exitDx=0;exitDy=0;entryX=0.5;entryY=0;entryDx=0;entryDy=0;" edge="1" parent="1" source="h2VD8IaXCJRkYgahIwb_-7" target="h2VD8IaXCJRkYgahIwb_-8">
          <mxGeometry relative="1" as="geometry" />
        </mxCell>
        <mxCell id="h2VD8IaXCJRkYgahIwb_-7" value="Aguardar&amp;nbsp;&lt;br&gt;Solução" style="rounded=0;whiteSpace=wrap;html=1;" vertex="1" parent="1">
          <mxGeometry x="100" y="230" width="120" height="60" as="geometry" />
        </mxCell>
        <mxCell id="h2VD8IaXCJRkYgahIwb_-14" style="edgeStyle=orthogonalEdgeStyle;rounded=0;orthogonalLoop=1;jettySize=auto;html=1;exitX=1;exitY=0.5;exitDx=0;exitDy=0;entryX=0;entryY=0.5;entryDx=0;entryDy=0;" edge="1" parent="1" source="h2VD8IaXCJRkYgahIwb_-8" target="h2VD8IaXCJRkYgahIwb_-9">
          <mxGeometry relative="1" as="geometry" />
        </mxCell>
        <mxCell id="h2VD8IaXCJRkYgahIwb_-15" value="Sim" style="edgeLabel;html=1;align=center;verticalAlign=middle;resizable=0;points=[];" vertex="1" connectable="0" parent="h2VD8IaXCJRkYgahIwb_-14">
          <mxGeometry x="-0.1714" y="3" relative="1" as="geometry">
            <mxPoint as="offset" />
          </mxGeometry>
        </mxCell>
        <mxCell id="h2VD8IaXCJRkYgahIwb_-24" value="Não" style="edgeStyle=orthogonalEdgeStyle;rounded=0;orthogonalLoop=1;jettySize=auto;html=1;exitX=0;exitY=0.5;exitDx=0;exitDy=0;" edge="1" parent="1" source="h2VD8IaXCJRkYgahIwb_-8">
          <mxGeometry relative="1" as="geometry">
            <mxPoint x="30" y="390" as="targetPoint" />
          </mxGeometry>
        </mxCell>
        <mxCell id="h2VD8IaXCJRkYgahIwb_-8" value="Mesa disponível" style="rhombus;whiteSpace=wrap;html=1;" vertex="1" parent="1">
          <mxGeometry x="120" y="350" width="80" height="80" as="geometry" />
        </mxCell>
        <mxCell id="h2VD8IaXCJRkYgahIwb_-18" style="edgeStyle=orthogonalEdgeStyle;rounded=0;orthogonalLoop=1;jettySize=auto;html=1;exitX=0.5;exitY=1;exitDx=0;exitDy=0;entryX=0.5;entryY=0;entryDx=0;entryDy=0;" edge="1" parent="1" source="h2VD8IaXCJRkYgahIwb_-9" target="h2VD8IaXCJRkYgahIwb_-17">
          <mxGeometry relative="1" as="geometry" />
        </mxCell>
        <mxCell id="h2VD8IaXCJRkYgahIwb_-9" value="Ir para mesa" style="rounded=0;whiteSpace=wrap;html=1;" vertex="1" parent="1">
          <mxGeometry x="340" y="360" width="120" height="60" as="geometry" />
        </mxCell>
        <mxCell id="h2VD8IaXCJRkYgahIwb_-20" style="edgeStyle=orthogonalEdgeStyle;rounded=0;orthogonalLoop=1;jettySize=auto;html=1;exitX=0.5;exitY=1;exitDx=0;exitDy=0;entryX=0.5;entryY=0;entryDx=0;entryDy=0;" edge="1" parent="1" source="h2VD8IaXCJRkYgahIwb_-17" target="h2VD8IaXCJRkYgahIwb_-19">
          <mxGeometry relative="1" as="geometry" />
        </mxCell>
        <mxCell id="h2VD8IaXCJRkYgahIwb_-17" value="Atendimento pelo Garçom" style="rounded=0;whiteSpace=wrap;html=1;" vertex="1" parent="1">
          <mxGeometry x="340" y="480" width="120" height="60" as="geometry" />
        </mxCell>
        <mxCell id="h2VD8IaXCJRkYgahIwb_-22" style="edgeStyle=orthogonalEdgeStyle;rounded=0;orthogonalLoop=1;jettySize=auto;html=1;exitX=0.5;exitY=1;exitDx=0;exitDy=0;entryX=0.5;entryY=0;entryDx=0;entryDy=0;" edge="1" parent="1" source="h2VD8IaXCJRkYgahIwb_-19" target="h2VD8IaXCJRkYgahIwb_-21">
          <mxGeometry relative="1" as="geometry" />
        </mxCell>
        <mxCell id="h2VD8IaXCJRkYgahIwb_-19" value="Orientação do esquema da casa e indicação de vinhos" style="shape=parallelogram;perimeter=parallelogramPerimeter;whiteSpace=wrap;html=1;fixedSize=1;" vertex="1" parent="1">
          <mxGeometry x="290" y="600" width="220" height="95" as="geometry" />
        </mxCell>
        <mxCell id="h2VD8IaXCJRkYgahIwb_-23" value="Carne" style="edgeStyle=orthogonalEdgeStyle;rounded=0;orthogonalLoop=1;jettySize=auto;html=1;exitX=0;exitY=0.5;exitDx=0;exitDy=0;" edge="1" parent="1" source="h2VD8IaXCJRkYgahIwb_-21">
          <mxGeometry relative="1" as="geometry">
            <mxPoint x="240" y="780" as="targetPoint" />
          </mxGeometry>
        </mxCell>
        <mxCell id="h2VD8IaXCJRkYgahIwb_-26" value="Massa" style="edgeStyle=orthogonalEdgeStyle;rounded=0;orthogonalLoop=1;jettySize=auto;html=1;exitX=0.5;exitY=1;exitDx=0;exitDy=0;entryX=0.5;entryY=0;entryDx=0;entryDy=0;" edge="1" parent="1" source="h2VD8IaXCJRkYgahIwb_-21" target="h2VD8IaXCJRkYgahIwb_-25">
          <mxGeometry relative="1" as="geometry" />
        </mxCell>
        <mxCell id="h2VD8IaXCJRkYgahIwb_-21" value="Carne ou Massa" style="rhombus;whiteSpace=wrap;html=1;" vertex="1" parent="1">
          <mxGeometry x="360" y="740" width="80" height="80" as="geometry" />
        </mxCell>
        <mxCell id="h2VD8IaXCJRkYgahIwb_-28" style="edgeStyle=orthogonalEdgeStyle;rounded=0;orthogonalLoop=1;jettySize=auto;html=1;exitX=0.5;exitY=1;exitDx=0;exitDy=0;entryX=0.5;entryY=0;entryDx=0;entryDy=0;" edge="1" parent="1" source="h2VD8IaXCJRkYgahIwb_-25" target="h2VD8IaXCJRkYgahIwb_-27">
          <mxGeometry relative="1" as="geometry" />
        </mxCell>
        <mxCell id="h2VD8IaXCJRkYgahIwb_-25" value="Conversa" style="rounded=0;whiteSpace=wrap;html=1;" vertex="1" parent="1">
          <mxGeometry x="340" y="870" width="120" height="60" as="geometry" />
        </mxCell>
        <mxCell id="h2VD8IaXCJRkYgahIwb_-30" style="edgeStyle=orthogonalEdgeStyle;rounded=0;orthogonalLoop=1;jettySize=auto;html=1;exitX=1;exitY=0.5;exitDx=0;exitDy=0;entryX=0;entryY=0.5;entryDx=0;entryDy=0;" edge="1" parent="1" source="h2VD8IaXCJRkYgahIwb_-27" target="h2VD8IaXCJRkYgahIwb_-29">
          <mxGeometry relative="1" as="geometry">
            <Array as="points">
              <mxPoint x="520" y="1010" />
              <mxPoint x="520" y="260" />
            </Array>
          </mxGeometry>
        </mxCell>
        <mxCell id="h2VD8IaXCJRkYgahIwb_-27" value="Chamar Garçom" style="rounded=0;whiteSpace=wrap;html=1;" vertex="1" parent="1">
          <mxGeometry x="340" y="980" width="120" height="60" as="geometry" />
        </mxCell>
        <mxCell id="h2VD8IaXCJRkYgahIwb_-34" style="edgeStyle=orthogonalEdgeStyle;rounded=0;orthogonalLoop=1;jettySize=auto;html=1;exitX=1;exitY=0.5;exitDx=0;exitDy=0;" edge="1" parent="1" source="h2VD8IaXCJRkYgahIwb_-29" target="h2VD8IaXCJRkYgahIwb_-33">
          <mxGeometry relative="1" as="geometry" />
        </mxCell>
        <mxCell id="h2VD8IaXCJRkYgahIwb_-40" style="edgeStyle=orthogonalEdgeStyle;rounded=0;orthogonalLoop=1;jettySize=auto;html=1;exitX=0.5;exitY=1;exitDx=0;exitDy=0;entryX=0.5;entryY=0;entryDx=0;entryDy=0;fontSize=12;" edge="1" parent="1" source="h2VD8IaXCJRkYgahIwb_-29" target="h2VD8IaXCJRkYgahIwb_-39">
          <mxGeometry relative="1" as="geometry" />
        </mxCell>
        <mxCell id="h2VD8IaXCJRkYgahIwb_-29" value="Pedido de massa,&amp;nbsp;&lt;br&gt;vinho tinto,&lt;br&gt;e uma água com gás" style="rounded=0;whiteSpace=wrap;html=1;" vertex="1" parent="1">
          <mxGeometry x="659" y="230" width="120" height="60" as="geometry" />
        </mxCell>
        <mxCell id="h2VD8IaXCJRkYgahIwb_-37" style="edgeStyle=orthogonalEdgeStyle;rounded=0;orthogonalLoop=1;jettySize=auto;html=1;exitX=0.5;exitY=1;exitDx=0;exitDy=0;entryX=0.5;entryY=0;entryDx=0;entryDy=0;fontSize=22;startArrow=none;" edge="1" parent="1" source="h2VD8IaXCJRkYgahIwb_-75" target="h2VD8IaXCJRkYgahIwb_-36">
          <mxGeometry relative="1" as="geometry" />
        </mxCell>
        <mxCell id="h2VD8IaXCJRkYgahIwb_-78" style="edgeStyle=orthogonalEdgeStyle;rounded=0;orthogonalLoop=1;jettySize=auto;html=1;exitX=0.5;exitY=1;exitDx=0;exitDy=0;entryX=0.5;entryY=0;entryDx=0;entryDy=0;fontSize=12;" edge="1" parent="1" source="h2VD8IaXCJRkYgahIwb_-31" target="h2VD8IaXCJRkYgahIwb_-75">
          <mxGeometry relative="1" as="geometry" />
        </mxCell>
        <mxCell id="h2VD8IaXCJRkYgahIwb_-31" value="Pedido na Cozinha" style="shape=parallelogram;perimeter=parallelogramPerimeter;whiteSpace=wrap;html=1;fixedSize=1;" vertex="1" parent="1">
          <mxGeometry x="926" y="230" width="150" height="60" as="geometry" />
        </mxCell>
        <mxCell id="h2VD8IaXCJRkYgahIwb_-35" style="edgeStyle=orthogonalEdgeStyle;rounded=0;orthogonalLoop=1;jettySize=auto;html=1;entryX=0;entryY=0.5;entryDx=0;entryDy=0;fontSize=22;" edge="1" parent="1" source="h2VD8IaXCJRkYgahIwb_-33" target="h2VD8IaXCJRkYgahIwb_-31">
          <mxGeometry relative="1" as="geometry" />
        </mxCell>
        <mxCell id="h2VD8IaXCJRkYgahIwb_-33" value="&lt;font style=&quot;font-size: 22px;&quot;&gt;*&lt;/font&gt;" style="text;html=1;align=center;verticalAlign=middle;resizable=0;points=[];autosize=1;strokeColor=none;fillColor=none;strokeWidth=13;" vertex="1" parent="1">
          <mxGeometry x="819" y="240" width="30" height="40" as="geometry" />
        </mxCell>
        <mxCell id="h2VD8IaXCJRkYgahIwb_-77" style="edgeStyle=orthogonalEdgeStyle;rounded=0;orthogonalLoop=1;jettySize=auto;html=1;exitX=0;exitY=0.5;exitDx=0;exitDy=0;entryX=1;entryY=0.5;entryDx=0;entryDy=0;fontSize=12;" edge="1" parent="1" source="h2VD8IaXCJRkYgahIwb_-36" target="h2VD8IaXCJRkYgahIwb_-42">
          <mxGeometry relative="1" as="geometry" />
        </mxCell>
        <mxCell id="h2VD8IaXCJRkYgahIwb_-36" value="Pedido Pronto" style="shape=parallelogram;perimeter=parallelogramPerimeter;whiteSpace=wrap;html=1;fixedSize=1;" vertex="1" parent="1">
          <mxGeometry x="926" y="470" width="150" height="60" as="geometry" />
        </mxCell>
        <mxCell id="h2VD8IaXCJRkYgahIwb_-44" style="edgeStyle=orthogonalEdgeStyle;rounded=0;orthogonalLoop=1;jettySize=auto;html=1;exitX=0.5;exitY=1;exitDx=0;exitDy=0;entryX=0.5;entryY=0;entryDx=0;entryDy=0;fontSize=12;" edge="1" parent="1" source="h2VD8IaXCJRkYgahIwb_-39" target="h2VD8IaXCJRkYgahIwb_-42">
          <mxGeometry relative="1" as="geometry" />
        </mxCell>
        <mxCell id="h2VD8IaXCJRkYgahIwb_-39" value="&lt;font style=&quot;font-size: 12px;&quot;&gt;Bater papo e apreciar a música&lt;/font&gt;" style="rounded=0;whiteSpace=wrap;html=1;strokeWidth=1;fontSize=22;" vertex="1" parent="1">
          <mxGeometry x="659" y="340" width="120" height="60" as="geometry" />
        </mxCell>
        <mxCell id="h2VD8IaXCJRkYgahIwb_-50" style="edgeStyle=orthogonalEdgeStyle;rounded=0;orthogonalLoop=1;jettySize=auto;html=1;exitX=0.5;exitY=1;exitDx=0;exitDy=0;entryX=0.5;entryY=0;entryDx=0;entryDy=0;fontSize=12;" edge="1" parent="1" source="h2VD8IaXCJRkYgahIwb_-42" target="h2VD8IaXCJRkYgahIwb_-45">
          <mxGeometry relative="1" as="geometry" />
        </mxCell>
        <mxCell id="h2VD8IaXCJRkYgahIwb_-42" value="Comer prato principal e o vinho" style="rounded=0;whiteSpace=wrap;html=1;strokeWidth=1;fontSize=12;" vertex="1" parent="1">
          <mxGeometry x="659" y="470" width="120" height="60" as="geometry" />
        </mxCell>
        <mxCell id="h2VD8IaXCJRkYgahIwb_-49" value="Creme Brulée" style="edgeStyle=orthogonalEdgeStyle;rounded=0;orthogonalLoop=1;jettySize=auto;html=1;exitX=1;exitY=0.5;exitDx=0;exitDy=0;entryX=0;entryY=0.5;entryDx=0;entryDy=0;fontSize=12;" edge="1" parent="1" source="h2VD8IaXCJRkYgahIwb_-45" target="h2VD8IaXCJRkYgahIwb_-48">
          <mxGeometry relative="1" as="geometry" />
        </mxCell>
        <mxCell id="h2VD8IaXCJRkYgahIwb_-86" value="&#xa;&lt;span style=&quot;color: rgb(0, 0, 0); font-family: Helvetica; font-size: 12px; font-style: normal; font-variant-ligatures: normal; font-variant-caps: normal; font-weight: 400; letter-spacing: normal; orphans: 2; text-align: center; text-indent: 0px; text-transform: none; widows: 2; word-spacing: 0px; -webkit-text-stroke-width: 0px; background-color: rgb(255, 255, 255); text-decoration-thickness: initial; text-decoration-style: initial; text-decoration-color: initial; float: none; display: inline !important;&quot;&gt;Tiramissu&lt;/span&gt;&#xa;&#xa;" style="edgeStyle=orthogonalEdgeStyle;rounded=0;orthogonalLoop=1;jettySize=auto;html=1;exitX=0;exitY=0.5;exitDx=0;exitDy=0;fontSize=12;" edge="1" parent="1" source="h2VD8IaXCJRkYgahIwb_-45">
          <mxGeometry relative="1" as="geometry">
            <mxPoint x="580" y="640" as="targetPoint" />
          </mxGeometry>
        </mxCell>
        <mxCell id="h2VD8IaXCJRkYgahIwb_-45" value="Pedir sobremessa" style="rhombus;whiteSpace=wrap;html=1;strokeWidth=1;fontSize=12;" vertex="1" parent="1">
          <mxGeometry x="659" y="590" width="120" height="100" as="geometry" />
        </mxCell>
        <mxCell id="h2VD8IaXCJRkYgahIwb_-52" style="edgeStyle=orthogonalEdgeStyle;rounded=0;orthogonalLoop=1;jettySize=auto;html=1;exitX=0.5;exitY=1;exitDx=0;exitDy=0;entryX=0.5;entryY=0;entryDx=0;entryDy=0;fontSize=12;" edge="1" parent="1" source="h2VD8IaXCJRkYgahIwb_-48" target="h2VD8IaXCJRkYgahIwb_-51">
          <mxGeometry relative="1" as="geometry" />
        </mxCell>
        <mxCell id="h2VD8IaXCJRkYgahIwb_-48" value="Chamar Garçom para fazer pedido" style="rounded=0;whiteSpace=wrap;html=1;strokeWidth=1;fontSize=12;" vertex="1" parent="1">
          <mxGeometry x="926" y="610" width="120" height="60" as="geometry" />
        </mxCell>
        <mxCell id="h2VD8IaXCJRkYgahIwb_-54" style="edgeStyle=orthogonalEdgeStyle;rounded=0;orthogonalLoop=1;jettySize=auto;html=1;exitX=0.5;exitY=1;exitDx=0;exitDy=0;entryX=0.5;entryY=0.025;entryDx=0;entryDy=0;entryPerimeter=0;fontSize=12;" edge="1" parent="1" source="h2VD8IaXCJRkYgahIwb_-51" target="h2VD8IaXCJRkYgahIwb_-53">
          <mxGeometry relative="1" as="geometry" />
        </mxCell>
        <mxCell id="h2VD8IaXCJRkYgahIwb_-60" style="edgeStyle=orthogonalEdgeStyle;rounded=0;orthogonalLoop=1;jettySize=auto;html=1;entryX=1;entryY=0.5;entryDx=0;entryDy=0;fontSize=12;" edge="1" parent="1" source="h2VD8IaXCJRkYgahIwb_-51" target="h2VD8IaXCJRkYgahIwb_-59">
          <mxGeometry relative="1" as="geometry" />
        </mxCell>
        <mxCell id="h2VD8IaXCJRkYgahIwb_-51" value="Pedir Creme Brulée e taça de vinho do Porto" style="rounded=0;whiteSpace=wrap;html=1;strokeWidth=1;fontSize=12;" vertex="1" parent="1">
          <mxGeometry x="926" y="810" width="120" height="60" as="geometry" />
        </mxCell>
        <mxCell id="h2VD8IaXCJRkYgahIwb_-58" style="edgeStyle=orthogonalEdgeStyle;rounded=0;orthogonalLoop=1;jettySize=auto;html=1;entryX=0.5;entryY=0;entryDx=0;entryDy=0;fontSize=12;" edge="1" parent="1" source="h2VD8IaXCJRkYgahIwb_-53" target="h2VD8IaXCJRkYgahIwb_-56">
          <mxGeometry relative="1" as="geometry" />
        </mxCell>
        <mxCell id="h2VD8IaXCJRkYgahIwb_-53" value="&lt;font style=&quot;font-size: 22px;&quot;&gt;*&lt;/font&gt;" style="text;html=1;align=center;verticalAlign=middle;resizable=0;points=[];autosize=1;strokeColor=none;fillColor=none;strokeWidth=13;" vertex="1" parent="1">
          <mxGeometry x="971" y="900" width="30" height="40" as="geometry" />
        </mxCell>
        <mxCell id="h2VD8IaXCJRkYgahIwb_-80" style="edgeStyle=orthogonalEdgeStyle;rounded=0;orthogonalLoop=1;jettySize=auto;html=1;exitX=0.5;exitY=1;exitDx=0;exitDy=0;fontSize=12;" edge="1" parent="1" source="h2VD8IaXCJRkYgahIwb_-56" target="h2VD8IaXCJRkYgahIwb_-79">
          <mxGeometry relative="1" as="geometry" />
        </mxCell>
        <mxCell id="h2VD8IaXCJRkYgahIwb_-56" value="Pedido na Cozinha" style="shape=parallelogram;perimeter=parallelogramPerimeter;whiteSpace=wrap;html=1;fixedSize=1;" vertex="1" parent="1">
          <mxGeometry x="911" y="980" width="150" height="60" as="geometry" />
        </mxCell>
        <mxCell id="h2VD8IaXCJRkYgahIwb_-63" style="edgeStyle=orthogonalEdgeStyle;rounded=0;orthogonalLoop=1;jettySize=auto;html=1;exitX=0;exitY=0.5;exitDx=0;exitDy=0;entryX=1;entryY=0.5;entryDx=0;entryDy=0;fontSize=12;" edge="1" parent="1" source="h2VD8IaXCJRkYgahIwb_-57" target="h2VD8IaXCJRkYgahIwb_-61">
          <mxGeometry relative="1" as="geometry" />
        </mxCell>
        <mxCell id="h2VD8IaXCJRkYgahIwb_-57" value="Pedido Pronto" style="shape=parallelogram;perimeter=parallelogramPerimeter;whiteSpace=wrap;html=1;fixedSize=1;" vertex="1" parent="1">
          <mxGeometry x="911" y="1240" width="150" height="60" as="geometry" />
        </mxCell>
        <mxCell id="h2VD8IaXCJRkYgahIwb_-62" style="edgeStyle=orthogonalEdgeStyle;rounded=0;orthogonalLoop=1;jettySize=auto;html=1;exitX=0.5;exitY=1;exitDx=0;exitDy=0;entryX=0.5;entryY=0;entryDx=0;entryDy=0;fontSize=12;" edge="1" parent="1" source="h2VD8IaXCJRkYgahIwb_-59" target="h2VD8IaXCJRkYgahIwb_-61">
          <mxGeometry relative="1" as="geometry" />
        </mxCell>
        <mxCell id="h2VD8IaXCJRkYgahIwb_-59" value="Aguardar" style="rounded=0;whiteSpace=wrap;html=1;strokeWidth=1;fontSize=12;" vertex="1" parent="1">
          <mxGeometry x="659" y="810" width="120" height="60" as="geometry" />
        </mxCell>
        <mxCell id="h2VD8IaXCJRkYgahIwb_-84" style="edgeStyle=orthogonalEdgeStyle;rounded=0;orthogonalLoop=1;jettySize=auto;html=1;exitX=0.5;exitY=1;exitDx=0;exitDy=0;entryX=0.5;entryY=0;entryDx=0;entryDy=0;fontSize=12;" edge="1" parent="1" source="h2VD8IaXCJRkYgahIwb_-61" target="h2VD8IaXCJRkYgahIwb_-82">
          <mxGeometry relative="1" as="geometry" />
        </mxCell>
        <mxCell id="h2VD8IaXCJRkYgahIwb_-61" value="Comer" style="rounded=0;whiteSpace=wrap;html=1;strokeWidth=1;fontSize=12;" vertex="1" parent="1">
          <mxGeometry x="659" y="930" width="120" height="60" as="geometry" />
        </mxCell>
        <mxCell id="h2VD8IaXCJRkYgahIwb_-70" style="edgeStyle=orthogonalEdgeStyle;rounded=0;orthogonalLoop=1;jettySize=auto;html=1;exitX=0.5;exitY=1;exitDx=0;exitDy=0;entryX=0.5;entryY=0;entryDx=0;entryDy=0;fontSize=12;" edge="1" parent="1" source="h2VD8IaXCJRkYgahIwb_-64" target="h2VD8IaXCJRkYgahIwb_-66">
          <mxGeometry relative="1" as="geometry" />
        </mxCell>
        <mxCell id="h2VD8IaXCJRkYgahIwb_-64" value="Pedir para fechar a conta" style="rounded=0;whiteSpace=wrap;html=1;strokeWidth=1;fontSize=12;" vertex="1" parent="1">
          <mxGeometry x="659" y="1169" width="120" height="60" as="geometry" />
        </mxCell>
        <mxCell id="h2VD8IaXCJRkYgahIwb_-71" style="edgeStyle=orthogonalEdgeStyle;rounded=0;orthogonalLoop=1;jettySize=auto;html=1;exitX=0.5;exitY=1;exitDx=0;exitDy=0;entryX=0.5;entryY=0;entryDx=0;entryDy=0;fontSize=12;" edge="1" parent="1" source="h2VD8IaXCJRkYgahIwb_-66" target="h2VD8IaXCJRkYgahIwb_-68">
          <mxGeometry relative="1" as="geometry" />
        </mxCell>
        <mxCell id="h2VD8IaXCJRkYgahIwb_-66" value="Pagar Conta" style="rounded=0;whiteSpace=wrap;html=1;strokeWidth=1;fontSize=12;" vertex="1" parent="1">
          <mxGeometry x="659" y="1280" width="120" height="60" as="geometry" />
        </mxCell>
        <mxCell id="h2VD8IaXCJRkYgahIwb_-74" style="edgeStyle=orthogonalEdgeStyle;rounded=0;orthogonalLoop=1;jettySize=auto;html=1;exitX=1;exitY=0.5;exitDx=0;exitDy=0;entryX=0;entryY=0.5;entryDx=0;entryDy=0;fontSize=12;" edge="1" parent="1" source="h2VD8IaXCJRkYgahIwb_-67" target="h2VD8IaXCJRkYgahIwb_-73">
          <mxGeometry relative="1" as="geometry" />
        </mxCell>
        <mxCell id="h2VD8IaXCJRkYgahIwb_-67" value="Tentar o pagamento novamente" style="rounded=0;whiteSpace=wrap;html=1;strokeWidth=1;fontSize=12;" vertex="1" parent="1">
          <mxGeometry x="911" y="1380" width="120" height="60" as="geometry" />
        </mxCell>
        <mxCell id="h2VD8IaXCJRkYgahIwb_-85" style="edgeStyle=orthogonalEdgeStyle;rounded=0;orthogonalLoop=1;jettySize=auto;html=1;exitX=1;exitY=0.5;exitDx=0;exitDy=0;entryX=0;entryY=0.5;entryDx=0;entryDy=0;fontSize=12;" edge="1" parent="1" source="h2VD8IaXCJRkYgahIwb_-68" target="h2VD8IaXCJRkYgahIwb_-67">
          <mxGeometry relative="1" as="geometry" />
        </mxCell>
        <mxCell id="h2VD8IaXCJRkYgahIwb_-68" value="Cartão Recusado" style="rounded=0;whiteSpace=wrap;html=1;strokeWidth=1;fontSize=12;" vertex="1" parent="1">
          <mxGeometry x="659" y="1380" width="120" height="60" as="geometry" />
        </mxCell>
        <mxCell id="h2VD8IaXCJRkYgahIwb_-73" value="Ir embora" style="rounded=0;whiteSpace=wrap;html=1;strokeWidth=1;fontSize=12;" vertex="1" parent="1">
          <mxGeometry x="1181" y="1380" width="120" height="60" as="geometry" />
        </mxCell>
        <mxCell id="h2VD8IaXCJRkYgahIwb_-75" value="Cozinhar, pegar vinho e água" style="rounded=0;whiteSpace=wrap;html=1;strokeWidth=1;fontSize=12;" vertex="1" parent="1">
          <mxGeometry x="941" y="350" width="120" height="60" as="geometry" />
        </mxCell>
        <mxCell id="h2VD8IaXCJRkYgahIwb_-81" style="edgeStyle=orthogonalEdgeStyle;rounded=0;orthogonalLoop=1;jettySize=auto;html=1;entryX=0.5;entryY=0;entryDx=0;entryDy=0;fontSize=12;" edge="1" parent="1" source="h2VD8IaXCJRkYgahIwb_-79" target="h2VD8IaXCJRkYgahIwb_-57">
          <mxGeometry relative="1" as="geometry" />
        </mxCell>
        <mxCell id="h2VD8IaXCJRkYgahIwb_-79" value="Cozinhar e pegar vinho" style="rounded=0;whiteSpace=wrap;html=1;strokeWidth=1;fontSize=12;" vertex="1" parent="1">
          <mxGeometry x="926" y="1120" width="120" height="60" as="geometry" />
        </mxCell>
        <mxCell id="h2VD8IaXCJRkYgahIwb_-83" style="edgeStyle=orthogonalEdgeStyle;rounded=0;orthogonalLoop=1;jettySize=auto;html=1;exitX=0.5;exitY=1;exitDx=0;exitDy=0;entryX=0.5;entryY=0;entryDx=0;entryDy=0;fontSize=12;" edge="1" parent="1" source="h2VD8IaXCJRkYgahIwb_-82" target="h2VD8IaXCJRkYgahIwb_-64">
          <mxGeometry relative="1" as="geometry" />
        </mxCell>
        <mxCell id="h2VD8IaXCJRkYgahIwb_-82" value="Conversar e concluir que querem ir embora" style="rounded=0;whiteSpace=wrap;html=1;strokeWidth=1;fontSize=12;" vertex="1" parent="1">
          <mxGeometry x="659" y="1030" width="120" height="60" as="geometry" />
        </mxCell>
      </root>
    </mxGraphModel>
  </diagram>
</mxfile>
